<svg width="91" height="91" viewBox="0 0 91 91" fill="none" xmlns="http://www.w3.org/2000/svg">
<path d="M45.4999 0.083313C20.4753 0.083313 0.083252 20.4754 0.083252 45.5C0.083252 70.5246 20.4753 90.9167 45.4999 90.9167C70.5245 90.9167 90.9166 70.5246 90.9166 45.5C90.9166 20.4754 70.5245 0.083313 45.4999 0.083313ZM67.2091 35.0541L41.4578 60.8054C40.822 61.4412 39.9591 61.8046 39.0508 61.8046C38.1424 61.8046 37.2795 61.4412 36.6437 60.8054L23.7908 47.9525C22.4737 46.6354 22.4737 44.4554 23.7908 43.1383C25.1078 41.8212 27.2878 41.8212 28.6049 43.1383L39.0508 53.5841L62.3949 30.24C63.712 28.9229 65.892 28.9229 67.2091 30.24C68.5262 31.5571 68.5262 33.6916 67.2091 35.0541Z" fill="#00C008"/>
</svg>
