<svg width="76" height="76" viewBox="0 0 76 76" fill="none" xmlns="http://www.w3.org/2000/svg">
<path d="M38 0.5C17.3375 0.5 0.5 17.3375 0.5 38C0.5 58.6625 17.3375 75.5 38 75.5C58.6625 75.5 75.5 58.6625 75.5 38C75.5 17.3375 58.6625 0.5 38 0.5ZM55.925 29.375L34.6625 50.6375C34.1375 51.1625 33.425 51.4625 32.675 51.4625C31.925 51.4625 31.2125 51.1625 30.6875 50.6375L20.075 40.025C18.9875 38.9375 18.9875 37.1375 20.075 36.05C21.1625 34.9625 22.9625 34.9625 24.05 36.05L32.675 44.675L51.95 25.4C53.0375 24.3125 54.8375 24.3125 55.925 25.4C57.0125 26.4875 57.0125 28.25 55.925 29.375Z" fill="#00C008"/>
</svg>
