<svg width="120" height="133" viewBox="0 0 120 133" fill="none" xmlns="http://www.w3.org/2000/svg">
<g clip-path="url(#clip0_115_9807)">
<path d="M38.9368 46.7233L23.1734 110.336C22.5092 113.011 22.7084 115.829 23.7424 118.384C24.7764 120.939 26.592 123.1 28.9286 124.557C34.9416 128.302 44.8825 132.356 60.0843 132.821C76.1977 133.314 86.9169 128.678 93.2557 124.469C95.4958 122.981 97.221 120.834 98.1949 118.325C99.1687 115.815 99.3434 113.065 98.695 110.452L82.9023 46.7233" fill="#0D0E10"/>
<path d="M60.9192 49.6779C81.819 49.6779 98.7616 43.9554 98.7616 36.8964C98.7616 29.8374 81.819 24.115 60.9192 24.115C40.0195 24.115 23.0769 29.8374 23.0769 36.8964C23.0769 43.9554 40.0195 49.6779 60.9192 49.6779Z" fill="#262626"/>
<path d="M60.9193 49.89C50.7887 49.89 41.2616 48.5566 34.093 46.1347C26.8526 43.6891 22.865 40.4081 22.865 36.8959C22.865 33.3836 26.8522 30.1026 34.093 27.657C41.2616 25.2359 50.7887 23.9017 60.9193 23.9017C71.0499 23.9017 80.5768 25.2353 87.7456 27.657C94.9859 30.1026 98.9734 33.3836 98.9734 36.8959C98.9734 40.4081 94.9862 43.6891 87.7456 46.1347C80.5768 48.5566 71.0498 49.89 60.9193 49.89ZM60.9193 24.3271C50.8335 24.3271 41.3545 25.6526 34.2282 28.0595C27.1737 30.4422 23.2886 33.5806 23.2886 36.8964C23.2886 40.2123 27.1737 43.3506 34.2282 45.7333C41.3545 48.1402 50.8337 49.4657 60.9193 49.4657C71.0049 49.4657 80.4839 48.1402 87.6102 45.7333C94.6647 43.3506 98.5498 40.2123 98.5498 36.8964C98.5498 33.5806 94.6647 30.4422 87.6102 28.0595C80.4839 25.6526 71.0049 24.3271 60.9193 24.3271Z" fill="#262626"/>
<path d="M60.9193 44.8087C88.3788 44.8087 110.639 38.6752 110.639 31.1091C110.639 23.5431 88.3788 17.4095 60.9193 17.4095C33.4598 17.4095 11.1995 23.5431 11.1995 31.1091C11.1995 38.6752 33.4598 44.8087 60.9193 44.8087Z" fill="#D6B16D"/>
<path d="M60.9194 45.0208C47.6202 45.0208 35.1144 43.5931 25.7059 41.0006C16.2146 38.3855 10.9875 34.8727 10.9875 31.1086C10.9875 27.3445 16.2146 23.8323 25.7059 21.2166C35.1144 18.6241 47.6202 17.1965 60.9194 17.1965C74.2186 17.1965 86.7242 18.6241 96.1327 21.2166C105.624 23.8317 110.851 27.3447 110.851 31.1086C110.851 34.8725 105.624 38.3849 96.1327 41.0006C86.7242 43.5931 74.2184 45.0208 60.9194 45.0208ZM60.9194 17.6217C47.6571 17.6217 35.1912 19.0441 25.8182 21.6267C21.2729 22.879 17.708 24.3351 15.222 25.9545C12.6933 27.6019 11.4111 29.3361 11.4111 31.1091C11.4111 32.8822 12.6933 34.6166 15.222 36.2638C17.708 37.8832 21.2729 39.3393 25.8182 40.5918C35.1912 43.1747 47.6564 44.5966 60.9194 44.5966C74.1824 44.5966 86.6473 43.1743 96.0204 40.5918C100.566 39.3393 104.131 37.8832 106.617 36.2638C109.145 34.6166 110.427 32.8822 110.427 31.1091C110.427 29.3361 109.145 27.6019 106.617 25.9545C104.131 24.3351 100.566 22.879 96.0204 21.6267C86.6473 19.0441 74.1814 17.6224 60.9194 17.6224V17.6217Z" fill="#262626"/>
<path d="M83.7961 23.1247C83.7961 29.181 73.316 30.6076 62.3872 30.8668C50.4804 31.1491 38.0432 29.0883 38.0432 23.1247C38.0603 17.0591 40.4781 11.2478 44.7665 6.96483C49.0549 2.68186 54.8639 0.276733 60.92 0.276733C66.9762 0.276733 72.7852 2.68186 77.0736 6.96483C81.362 11.2478 83.7798 17.0591 83.7969 23.1247H83.7961Z" fill="#F6D706"/>
<path d="M80.8269 21.9257C80.7719 21.9257 80.719 21.9042 80.6795 21.8658C80.64 21.8275 80.617 21.7752 80.6153 21.7202C80.551 19.5462 80.1221 17.3985 79.3465 15.3671C79.3264 15.3145 79.328 15.2562 79.3509 15.2048C79.3738 15.1534 79.4161 15.1132 79.4686 15.0931C79.5211 15.073 79.5794 15.0746 79.6306 15.0975C79.6819 15.1205 79.722 15.1629 79.7421 15.2154C80.5345 17.2912 80.9728 19.4857 81.0387 21.7071C81.0404 21.7634 81.0198 21.8179 80.9814 21.8589C80.9429 21.8999 80.8898 21.9239 80.8337 21.9257H80.8269Z" fill="#262626"/>
<path d="M77.6635 11.8111C77.6282 11.8111 77.5935 11.8024 77.5624 11.7855C77.5314 11.7687 77.5051 11.7444 77.4859 11.7147C74.691 7.44174 70.3411 4.43036 65.3624 3.32186C65.3088 3.3086 65.2626 3.27495 65.2334 3.22806C65.2043 3.18117 65.1945 3.12474 65.2063 3.07077C65.218 3.0168 65.2503 2.96954 65.2963 2.93905C65.3423 2.90856 65.3983 2.89724 65.4525 2.9075C70.5398 4.04001 74.9847 7.11692 77.8405 11.483C77.8614 11.515 77.8732 11.552 77.8748 11.5902C77.8764 11.6283 77.8676 11.6662 77.8495 11.6998C77.8314 11.7334 77.8045 11.7615 77.7718 11.7811C77.739 11.8006 77.7016 11.811 77.6635 11.8111Z" fill="#262626"/>
<path d="M60.169 31.105C50.0546 31.105 42.3546 29.4013 39.3376 26.452C38.3377 25.4742 37.8309 24.3545 37.8309 23.1245C37.8224 20.0822 38.4132 17.0682 39.5697 14.2551C40.7262 11.4419 42.4255 8.885 44.5703 6.73078C46.7151 4.57656 49.2633 2.86738 52.0687 1.70119C54.8742 0.534989 57.8819 -0.0653076 60.9193 -0.0653076C63.9568 -0.0653076 66.9645 0.534989 69.77 1.70119C72.5754 2.86738 75.1236 4.57656 77.2684 6.73078C79.4132 8.885 81.1125 11.4419 82.269 14.2551C83.4255 17.0682 84.0163 20.0822 84.0078 23.1245C84.0078 25.9812 81.7336 28.0837 77.2484 29.3733C73.7972 30.3656 68.9378 30.9234 62.3922 31.0786C61.6393 31.0962 60.8983 31.105 60.169 31.105ZM60.9189 0.42367C54.9098 0.430458 49.1488 2.82428 44.8998 7.07995C40.6507 11.3356 38.2606 17.1056 38.2538 23.1241C38.2538 24.2357 38.7178 25.2531 39.633 26.1481C42.7866 29.2328 51.2899 30.9168 62.3815 30.6545C71.4839 30.4389 83.5853 29.4233 83.5853 23.1246C83.5785 17.106 81.1883 11.3359 76.9391 7.08019C72.6899 2.82448 66.9286 0.430765 60.9194 0.42422L60.9189 0.42367Z" fill="#262626"/>
<path d="M23.8994 32.9429C25.54 32.9429 26.87 31.6108 26.87 29.9676C26.87 28.3244 25.54 26.9923 23.8994 26.9923C22.2587 26.9923 20.9287 28.3244 20.9287 29.9676C20.9287 31.6108 22.2587 32.9429 23.8994 32.9429Z" fill="white"/>
<path d="M23.8993 33.155C23.2698 33.155 22.6545 32.9681 22.1312 32.6178C21.6078 32.2676 21.1999 31.7698 20.959 31.1874C20.7182 30.6049 20.6552 29.9641 20.7779 29.3458C20.9007 28.7274 21.2038 28.1595 21.6489 27.7137C22.094 27.268 22.6611 26.9644 23.2784 26.8414C23.8957 26.7184 24.5356 26.7815 25.1171 27.0228C25.6986 27.264 26.1957 27.6726 26.5454 28.1967C26.8951 28.7209 27.0817 29.3372 27.0817 29.9676C27.0807 30.8127 26.7451 31.6228 26.1485 32.2204C25.5519 32.8179 24.743 33.1541 23.8993 33.155ZM23.8993 27.2042C23.3536 27.2042 22.8201 27.3663 22.3664 27.6699C21.9127 27.9736 21.5591 28.4052 21.3502 28.9101C21.1414 29.415 21.0868 29.9707 21.1932 30.5067C21.2997 31.0427 21.5625 31.5351 21.9483 31.9216C22.3342 32.308 22.8258 32.5712 23.361 32.6779C23.8962 32.7845 24.4509 32.7298 24.9551 32.5206C25.4592 32.3115 25.8901 31.9573 26.1933 31.5028C26.4965 31.0484 26.6583 30.5141 26.6583 29.9676C26.6576 29.2349 26.3667 28.5325 25.8494 28.0144C25.3321 27.4963 24.6308 27.205 23.8993 27.2042Z" fill="#262626"/>
<path d="M60.9194 41.4638C62.56 41.4638 63.89 40.1317 63.89 38.4885C63.89 36.8453 62.56 35.5132 60.9194 35.5132C59.2787 35.5132 57.9487 36.8453 57.9487 38.4885C57.9487 40.1317 59.2787 41.4638 60.9194 41.4638Z" fill="white"/>
<path d="M60.9193 41.6759C60.2898 41.6759 59.6745 41.489 59.1512 41.1387C58.6278 40.7885 58.2199 40.2907 57.9791 39.7082C57.7382 39.1258 57.6752 38.4849 57.798 37.8666C57.9208 37.2483 58.2239 36.6804 58.6689 36.2346C59.114 35.7888 59.6811 35.4853 60.2984 35.3623C60.9157 35.2393 61.5556 35.3024 62.1372 35.5437C62.7187 35.7849 63.2157 36.1934 63.5654 36.7176C63.9151 37.2418 64.1017 37.858 64.1017 38.4885C64.1008 39.3335 63.7652 40.1437 63.1685 40.7413C62.5719 41.3388 61.763 41.6749 60.9193 41.6759ZM60.9193 35.7253C60.3736 35.7253 59.8402 35.8873 59.3865 36.191C58.9328 36.4946 58.5792 36.9261 58.3704 37.431C58.1616 37.9359 58.107 38.4915 58.2134 39.0275C58.3199 39.5635 58.5826 40.0559 58.9685 40.4423C59.3543 40.8288 59.8459 41.0919 60.381 41.1985C60.9162 41.3052 61.4709 41.2504 61.975 41.0413C62.4792 40.8322 62.91 40.478 63.2132 40.0236C63.5163 39.5692 63.6781 39.035 63.6781 38.4885C63.6774 37.7559 63.3864 37.0535 62.8692 36.5355C62.352 36.0174 61.6507 35.7261 60.9193 35.7253Z" fill="#262626"/>
<path d="M97.9331 32.9429C99.5737 32.9429 100.904 31.6108 100.904 29.9676C100.904 28.3244 99.5737 26.9923 97.9331 26.9923C96.2924 26.9923 94.9624 28.3244 94.9624 29.9676C94.9624 31.6108 96.2924 32.9429 97.9331 32.9429Z" fill="white"/>
<path d="M97.9329 33.155C97.3035 33.155 96.6882 32.9681 96.1649 32.6178C95.6415 32.2676 95.2336 31.7698 94.9927 31.1874C94.7519 30.6049 94.6888 29.9641 94.8116 29.3458C94.9344 28.7274 95.2375 28.1595 95.6826 27.7137C96.1277 27.268 96.6948 26.9644 97.3121 26.8414C97.9294 26.7184 98.5693 26.7815 99.1508 27.0228C99.7323 27.264 100.229 27.6726 100.579 28.1967C100.929 28.7209 101.115 29.3372 101.115 29.9676C101.114 30.8127 100.779 31.6228 100.182 32.2204C99.5856 32.8179 98.7767 33.1541 97.9329 33.155ZM97.9329 27.2042C97.3873 27.2042 96.8538 27.3663 96.4001 27.6699C95.9464 27.9736 95.5928 28.4052 95.3839 28.9101C95.1751 29.415 95.1205 29.9707 95.2269 30.5067C95.3334 31.0427 95.5962 31.5351 95.982 31.9216C96.3679 32.308 96.8595 32.5712 97.3947 32.6779C97.9299 32.7845 98.4846 32.7298 98.9888 32.5206C99.4929 32.3115 99.9238 31.9573 100.227 31.5028C100.53 31.0484 100.692 30.5141 100.692 29.9676C100.691 29.2349 100.4 28.5325 99.8831 28.0144C99.3658 27.4963 98.6645 27.205 97.9329 27.2042Z" fill="#262626"/>
<path d="M82.1457 38.4885C83.7864 38.4885 85.1164 37.1564 85.1164 35.5132C85.1164 33.8699 83.7864 32.5378 82.1457 32.5378C80.5051 32.5378 79.175 33.8699 79.175 35.5132C79.175 37.1564 80.5051 38.4885 82.1457 38.4885Z" fill="white"/>
<path d="M82.1456 38.7006C81.5162 38.7006 80.9009 38.5136 80.3775 38.1634C79.8542 37.8131 79.4463 37.3153 79.2054 36.7329C78.9645 36.1505 78.9015 35.5096 79.0243 34.8913C79.1471 34.273 79.4502 33.705 79.8953 33.2593C80.3403 32.8135 80.9074 32.5099 81.5247 32.3869C82.1421 32.2639 82.7819 32.3271 83.3635 32.5683C83.945 32.8096 84.442 33.2181 84.7917 33.7423C85.1414 34.2664 85.328 34.8827 85.328 35.5131C85.3271 36.3582 84.9915 37.1684 84.3949 37.7659C83.7982 38.3635 82.9893 38.6996 82.1456 38.7006ZM82.1456 32.7498C81.5999 32.7497 81.0664 32.9118 80.6127 33.2154C80.159 33.519 79.8053 33.9506 79.5964 34.4555C79.3876 34.9604 79.3329 35.5161 79.4394 36.0521C79.5458 36.5882 79.8086 37.0806 80.1944 37.467C80.5803 37.8535 81.0719 38.1167 81.6071 38.2234C82.1423 38.33 82.697 38.2753 83.2012 38.0662C83.7054 37.857 84.1363 37.5028 84.4395 37.0484C84.7426 36.5939 84.9045 36.0597 84.9045 35.5131C84.9037 34.7805 84.6128 34.0781 84.0956 33.56C83.5784 33.0419 82.8771 32.7505 82.1456 32.7498Z" fill="#262626"/>
<path d="M39.6931 38.8935C41.3337 38.8935 42.6637 37.5614 42.6637 35.9182C42.6637 34.275 41.3337 32.9429 39.6931 32.9429C38.0524 32.9429 36.7224 34.275 36.7224 35.9182C36.7224 37.5614 38.0524 38.8935 39.6931 38.8935Z" fill="white"/>
<path d="M39.693 39.1058C39.0635 39.1058 38.4482 38.9189 37.9249 38.5687C37.4015 38.2184 36.9936 37.7206 36.7527 37.1382C36.5119 36.5557 36.4489 35.9149 36.5716 35.2966C36.6944 34.6783 36.9975 34.1103 37.4426 33.6645C37.8877 33.2188 38.4548 32.9152 39.0721 32.7922C39.6894 32.6692 40.3293 32.7323 40.9108 32.9736C41.4923 33.2148 41.9894 33.6234 42.3391 34.1475C42.6888 34.6717 42.8754 35.288 42.8754 35.9184C42.8744 36.7635 42.5388 37.5736 41.9422 38.1712C41.3456 38.7687 40.5367 39.1049 39.693 39.1058ZM39.693 33.155C39.1472 33.1549 38.6137 33.3168 38.1598 33.6203C37.706 33.9239 37.3522 34.3554 37.1433 34.8603C36.9343 35.3652 36.8795 35.9209 36.9859 36.457C37.0923 36.9931 37.355 37.4856 37.7408 37.8721C38.1267 38.2587 38.6183 38.5219 39.1536 38.6286C39.6888 38.7353 40.2436 38.6806 40.7478 38.4714C41.252 38.2623 41.6829 37.9081 41.9861 37.4536C42.2893 36.9991 42.4511 36.4648 42.4511 35.9182C42.4503 35.1857 42.1595 34.4835 41.6424 33.9655C41.1254 33.4475 40.4243 33.156 39.693 33.155Z" fill="#262626"/>
<path d="M92.4193 20.5094C92.1979 21.181 91.745 21.7517 91.1416 22.1191C90.5382 22.4866 89.8239 22.6268 89.1267 22.5146C88.4295 22.4025 87.795 22.0453 87.3368 21.5071C86.8787 20.9688 86.627 20.2848 86.6267 19.5775C86.6267 19.511 86.6295 19.446 86.6337 19.381C88.6626 19.7204 90.5954 20.0965 92.4193 20.5094Z" fill="white"/>
<path d="M89.5973 22.7647C88.7535 22.7638 87.9445 22.4278 87.3478 21.8302C86.7512 21.2326 86.4156 20.4223 86.4148 19.5772C86.4148 19.5061 86.4177 19.4364 86.4223 19.3667L86.4377 19.1328L86.6685 19.1715C88.7085 19.5127 90.6592 19.8932 92.4664 20.3021L92.6939 20.3537L92.6208 20.5756C92.4116 21.2131 92.0065 21.7681 91.4635 22.1613C90.9205 22.5544 90.2673 22.7656 89.5973 22.7647ZM86.8391 19.6305C86.8514 20.2626 87.0796 20.8713 87.4857 21.3553C87.8919 21.8392 88.4514 22.1691 89.0709 22.2898C89.6905 22.4106 90.3327 22.3149 90.8904 22.0188C91.4481 21.7228 91.8875 21.2441 92.1355 20.6628C90.475 20.2918 88.6956 19.9451 86.8391 19.6305Z" fill="#262626"/>
<path d="M34.8927 19.5776C34.8926 20.2788 34.6451 20.9575 34.1941 21.4939C33.743 22.0302 33.1173 22.3898 32.4273 22.5092C31.7374 22.6286 31.0275 22.5001 30.4229 22.1464C29.8183 21.7927 29.3579 21.2365 29.1228 20.5759C30.9397 20.1601 32.8655 19.7783 34.8885 19.4347C34.8913 19.4814 34.8927 19.5294 34.8927 19.5776Z" fill="white"/>
<path d="M31.9222 22.7647C31.2654 22.7638 30.625 22.5599 30.0882 22.181C29.5513 21.802 29.1443 21.2664 28.9226 20.6472L28.8425 20.4223L29.075 20.3692C30.9009 19.9513 32.8447 19.5666 34.8524 19.2257L35.0851 19.1862L35.0993 19.4219C35.1025 19.4728 35.1039 19.5252 35.1039 19.5776C35.103 20.4225 34.7674 21.2326 34.171 21.83C33.5745 22.4275 32.7658 22.7636 31.9222 22.7647ZM29.4126 20.7275C29.6709 21.2925 30.1117 21.7538 30.664 22.037C31.2162 22.3202 31.8476 22.4088 32.4563 22.2884C33.0649 22.1679 33.6153 21.8456 34.0186 21.3734C34.4219 20.9012 34.6545 20.3066 34.6789 19.6857C32.8543 19.9997 31.0852 20.3496 29.4126 20.7275Z" fill="#262626"/>
<path d="M65.5408 123.444L38.3845 107.95L59.3997 71.0012L78.1777 81.7149L81.7832 94.8867L65.5408 123.444Z" fill="#726A64"/>
<path opacity="0.3" d="M69.9459 105.04C70.8393 105.04 71.5635 104.314 71.5635 103.42C71.5635 102.525 70.8393 101.799 69.9459 101.799C69.0526 101.799 68.3284 102.525 68.3284 103.42C68.3284 104.314 69.0526 105.04 69.9459 105.04Z" fill="#F6D706"/>
<path opacity="0.3" d="M52.8754 96.5067C53.7687 96.5067 54.4929 95.7813 54.4929 94.8866C54.4929 93.9918 53.7687 93.2665 52.8754 93.2665C51.982 93.2665 51.2578 93.9918 51.2578 94.8866C51.2578 95.7813 51.982 96.5067 52.8754 96.5067Z" fill="#F6D706"/>
<path d="M65.6197 123.733L38.0957 108.029L59.3205 70.7119L78.3585 81.5749L82.0105 94.9159L65.6197 123.733ZM38.6733 107.871L65.4613 123.155L81.5565 94.8579L77.9973 81.8557L59.4791 71.2906L38.6733 107.871Z" fill="#262626"/>
<path opacity="0.3" d="M78.1776 81.7148L73.4048 90.1064L81.7831 94.8867L78.1776 81.7148Z" fill="#726A64"/>
<path d="M81.7832 95.0986C81.7464 95.0986 81.7103 95.089 81.6784 95.0709L73.2999 90.2907C73.2512 90.2627 73.2154 90.2166 73.2006 90.1623C73.1858 90.108 73.1931 90.0501 73.2209 90.0012L77.9937 81.6093C78.0144 81.5728 78.0454 81.5433 78.0829 81.5245C78.1203 81.5057 78.1625 81.4985 78.2041 81.5037C78.2456 81.509 78.2847 81.5264 78.3163 81.5539C78.348 81.5814 78.3708 81.6177 78.3818 81.6582L81.9875 94.8293C81.9961 94.8607 81.9973 94.8938 81.991 94.9258C81.9848 94.9578 81.9713 94.988 81.9515 95.0139C81.9317 95.0398 81.9063 95.0608 81.8771 95.0753C81.8479 95.0897 81.8158 95.0973 81.7832 95.0973V95.0986ZM73.6937 90.0271L81.4437 94.4488L78.1085 82.2647L73.6937 90.0271Z" fill="#292A2E"/>
<path d="M58.312 92.755C59.0171 92.755 59.5887 92.1826 59.5887 91.4764C59.5887 90.7702 59.0171 90.1978 58.312 90.1978C57.607 90.1978 57.0354 90.7702 57.0354 91.4764C57.0354 92.1826 57.607 92.755 58.312 92.755Z" fill="#292A2E"/>
<path d="M70.2867 98.2083C70.9917 98.2083 71.5633 97.6358 71.5633 96.9296C71.5633 96.2235 70.9917 95.651 70.2867 95.651C69.5816 95.651 69.01 96.2235 69.01 96.9296C69.01 97.6358 69.5816 98.2083 70.2867 98.2083Z" fill="#292A2E"/>
<path d="M64.8607 106.051C64.8056 106.051 64.7526 106.029 64.7131 105.991C64.6736 105.952 64.6506 105.9 64.6491 105.844C64.6224 104.822 64.3356 103.823 63.8158 102.943C63.2959 102.062 62.5603 101.329 61.6785 100.813C60.7967 100.297 59.798 100.015 58.777 99.9941C57.756 99.9727 56.7464 100.213 55.8439 100.692C55.8193 100.705 55.7921 100.714 55.7641 100.717C55.736 100.72 55.7076 100.718 55.6806 100.71C55.6535 100.702 55.6283 100.689 55.6064 100.671C55.5846 100.653 55.5665 100.631 55.5534 100.606C55.5402 100.581 55.5321 100.553 55.5296 100.525C55.5272 100.497 55.5303 100.468 55.539 100.442C55.5476 100.415 55.5615 100.39 55.5799 100.368C55.5983 100.347 55.6208 100.329 55.646 100.317C56.6122 99.8044 57.6929 99.5477 58.7859 99.5706C59.8788 99.5936 60.9478 99.8955 61.8917 100.448C62.8356 101 63.6231 101.785 64.1797 102.727C64.7363 103.669 65.0436 104.738 65.0725 105.833C65.074 105.889 65.0531 105.944 65.0145 105.984C64.9759 106.025 64.9227 106.049 64.8666 106.051H64.8607Z" fill="#292A2E"/>
<path d="M59.4228 90.1681C58.7351 90.1594 58.0641 89.9547 57.4884 89.5779C57.4431 89.5452 57.4125 89.4959 57.4033 89.4407C57.3941 89.3855 57.407 89.3289 57.4392 89.2833C57.4715 89.2376 57.5204 89.2065 57.5755 89.1968C57.6305 89.1871 57.6871 89.1996 57.733 89.2315C57.7498 89.2432 58.9922 90.0974 60.3804 89.5663C60.4325 89.5478 60.4898 89.5504 60.54 89.5736C60.5903 89.5969 60.6294 89.6388 60.6491 89.6906C60.6689 89.7423 60.6676 89.7997 60.6456 89.8506C60.6236 89.9014 60.5827 89.9416 60.5315 89.9626C60.1776 90.0986 59.8018 90.1683 59.4228 90.1681Z" fill="#292A2E"/>
<path d="M72.4991 96.2642C72.4754 96.2642 72.4519 96.2602 72.4295 96.2525C70.644 95.6297 70.4412 94.2504 70.4333 94.192C70.4258 94.1361 70.4407 94.0796 70.4749 94.0347C70.509 93.9899 70.5595 93.9605 70.6153 93.953C70.6711 93.9454 70.7276 93.9604 70.7723 93.9946C70.8171 94.0288 70.8464 94.0794 70.854 94.1352C70.8613 94.1854 71.042 95.3184 72.5698 95.8519C72.6169 95.8684 72.6568 95.9011 72.6822 95.9443C72.7076 95.9874 72.717 96.0381 72.7086 96.0875C72.7003 96.1369 72.6748 96.1817 72.6366 96.214C72.5984 96.2464 72.5501 96.2641 72.5001 96.2642H72.4991Z" fill="#292A2E"/>
<path d="M2.16141 46.9354C2.13361 46.9354 2.10608 46.9299 2.08039 46.9192C2.0547 46.9086 2.03137 46.8929 2.01171 46.8732C1.99206 46.8535 1.97648 46.8302 1.96585 46.8044C1.95523 46.7787 1.94977 46.7511 1.9498 46.7233V40.7387C1.94897 40.7104 1.95383 40.6821 1.96409 40.6557C1.97436 40.6292 1.98982 40.6051 2.00956 40.5847C2.0293 40.5644 2.05292 40.5482 2.07902 40.5371C2.10512 40.5261 2.13317 40.5204 2.16151 40.5204C2.18984 40.5204 2.21789 40.5261 2.24399 40.5371C2.27009 40.5482 2.29371 40.5644 2.31345 40.5847C2.33319 40.6051 2.34865 40.6292 2.35892 40.6557C2.36918 40.6821 2.37404 40.7104 2.37321 40.7387V46.7233C2.37324 46.7511 2.36777 46.7787 2.35714 46.8045C2.3465 46.8302 2.3309 46.8536 2.31123 46.8733C2.29156 46.893 2.2682 46.9086 2.24249 46.9193C2.21679 46.9299 2.18923 46.9354 2.16141 46.9354Z" fill="#262626"/>
<path d="M4.11104 43.9432H0.211798C0.155626 43.9432 0.101754 43.9208 0.0620342 43.881C0.0223144 43.8413 0 43.7873 0 43.7311C0 43.6748 0.0223144 43.6208 0.0620342 43.5811C0.101754 43.5413 0.155626 43.5189 0.211798 43.5189H4.11104C4.16721 43.5189 4.22108 43.5413 4.2608 43.5811C4.30052 43.6208 4.32284 43.6748 4.32284 43.7311C4.32284 43.7873 4.30052 43.8413 4.2608 43.881C4.22108 43.9208 4.16721 43.9432 4.11104 43.9432Z" fill="#262626"/>
<path d="M103.869 80.2666C103.813 80.2666 103.759 80.2443 103.719 80.2045C103.679 80.1647 103.657 80.1108 103.657 80.0545V70.9513C103.657 70.895 103.679 70.841 103.719 70.8013C103.759 70.7615 103.813 70.7391 103.869 70.7391C103.925 70.7391 103.979 70.7615 104.019 70.8013C104.058 70.841 104.081 70.895 104.081 70.9513V80.0545C104.081 80.1108 104.058 80.1647 104.018 80.2045C103.979 80.2442 103.925 80.2666 103.869 80.2666Z" fill="#262626"/>
<path d="M106.835 75.715H100.904C100.848 75.715 100.794 75.6927 100.754 75.6529C100.714 75.6131 100.692 75.5592 100.692 75.5029C100.692 75.4466 100.714 75.3927 100.754 75.3529C100.794 75.3131 100.848 75.2908 100.904 75.2908H106.835C106.891 75.2908 106.945 75.3131 106.985 75.3529C107.025 75.3927 107.047 75.4466 107.047 75.5029C107.047 75.5592 107.025 75.6131 106.985 75.6529C106.945 75.6927 106.891 75.715 106.835 75.715Z" fill="#262626"/>
<path d="M118.305 51.487C118.277 51.487 118.25 51.4815 118.224 51.4709C118.199 51.4602 118.175 51.4446 118.155 51.4249C118.136 51.4052 118.12 51.3818 118.11 51.3561C118.099 51.3303 118.093 51.3027 118.094 51.2749V46.7232C118.094 46.667 118.116 46.613 118.156 46.5732C118.195 46.5335 118.249 46.5111 118.305 46.5111C118.361 46.5111 118.415 46.5335 118.455 46.5732C118.495 46.613 118.517 46.667 118.517 46.7232V51.2749C118.517 51.3027 118.512 51.3303 118.501 51.3561C118.49 51.3818 118.475 51.4052 118.455 51.4249C118.435 51.4446 118.412 51.4602 118.386 51.4709C118.361 51.4815 118.333 51.487 118.305 51.487Z" fill="#262626"/>
<path d="M119.788 49.2112H116.823C116.795 49.2112 116.767 49.2058 116.742 49.1951C116.716 49.1844 116.693 49.1688 116.673 49.1491C116.653 49.1294 116.638 49.106 116.627 49.0803C116.616 49.0546 116.611 49.027 116.611 48.9991C116.611 48.9713 116.616 48.9437 116.627 48.9179C116.638 48.8922 116.653 48.8688 116.673 48.8491C116.693 48.8294 116.716 48.8138 116.742 48.8031C116.767 48.7925 116.795 48.787 116.823 48.787H119.788C119.845 48.787 119.898 48.8093 119.938 48.8491C119.978 48.8889 120 48.9429 120 48.9991C120 49.0554 119.978 49.1093 119.938 49.1491C119.898 49.1889 119.845 49.2112 119.788 49.2112Z" fill="#262626"/>
</g>
<defs>
<clipPath id="clip0_115_9807">
<rect width="120" height="132.857" fill="white"/>
</clipPath>
</defs>
</svg>
