<svg width="16" height="17" viewBox="0 0 16 17" fill="none" xmlns="http://www.w3.org/2000/svg">
<path d="M14.6666 11.66V3.6133C14.6666 2.8133 14.0133 2.21996 13.2199 2.28663H13.1799C11.7799 2.40663 9.65325 3.11996 8.46658 3.86663L8.35325 3.93996C8.15992 4.05996 7.83992 4.05996 7.64659 3.93996L7.47992 3.83996C6.29325 3.09996 4.17325 2.3933 2.77325 2.27996C1.97992 2.2133 1.33325 2.8133 1.33325 3.60663V11.66C1.33325 12.3 1.85325 12.9 2.49325 12.98L2.68659 13.0066C4.13325 13.2 6.36659 13.9333 7.64659 14.6333L7.67325 14.6466C7.85325 14.7466 8.13992 14.7466 8.31325 14.6466C9.59325 13.94 11.8333 13.2 13.2866 13.0066L13.5066 12.98C14.1466 12.9 14.6666 12.3 14.6666 11.66Z" stroke="#F9F7EF" stroke-width="1.5" stroke-linecap="round" stroke-linejoin="round"/>
<path d="M8 4.16003V14.16" stroke="#F9F7EF" stroke-width="1.5" stroke-linecap="round" stroke-linejoin="round"/>
<path d="M5.16675 6.16003H3.66675" stroke="#F9F7EF" stroke-width="1.5" stroke-linecap="round" stroke-linejoin="round"/>
<path d="M5.66675 8.16003H3.66675" stroke="#F9F7EF" stroke-width="1.5" stroke-linecap="round" stroke-linejoin="round"/>
</svg>
