<svg width="24" height="24" viewBox="0 0 24 24" fill="none" xmlns="http://www.w3.org/2000/svg">
<path d="M9 22H21" stroke="#726A64" stroke-width="1.5" stroke-linecap="round" stroke-linejoin="round"/>
<path d="M2 22H6" stroke="#726A64" stroke-width="1.5" stroke-linecap="round" stroke-linejoin="round"/>
<path d="M3 13V18C3 18.55 3.45 19 4 19H5.59998C6.14998 19 6.59998 18.55 6.59998 18V9.38C6.59998 8.83 6.14998 8.38 5.59998 8.38H4C3.45 8.38 3 8.83 3 9.38" stroke="#726A64" stroke-width="1.5" stroke-linecap="round" stroke-linejoin="round"/>
<path d="M12.7999 5.18994H11.2C10.65 5.18994 10.2 5.63994 10.2 6.18994V17.9999C10.2 18.5499 10.65 18.9999 11.2 18.9999H12.7999C13.3499 18.9999 13.7999 18.5499 13.7999 17.9999V6.18994C13.7999 5.63994 13.3499 5.18994 12.7999 5.18994Z" stroke="#726A64" stroke-width="1.5" stroke-linecap="round" stroke-linejoin="round"/>
<path d="M20.9999 3C20.9999 2.45 20.5499 2 19.9999 2H18.3999C17.8499 2 17.3999 2.45 17.3999 3V18C17.3999 18.55 17.8499 19 18.3999 19H19.9999C20.5499 19 20.9999 18.55 20.9999 18V7.13" stroke="#726A64" stroke-width="1.5" stroke-linecap="round" stroke-linejoin="round"/>
</svg>
