<svg width="16" height="17" viewBox="0 0 16 17" fill="none" xmlns="http://www.w3.org/2000/svg">
<path d="M6.10646 8.24671C6.08646 8.24671 6.07313 8.24671 6.05313 8.24671C6.01979 8.24004 5.97313 8.24004 5.93313 8.24671C3.99979 8.18671 2.53979 6.66671 2.53979 4.79337C2.53979 2.88671 4.09313 1.33337 5.99979 1.33337C7.90646 1.33337 9.45979 2.88671 9.45979 4.79337C9.45313 6.66671 7.98646 8.18671 6.12646 8.24671C6.11979 8.24671 6.11313 8.24671 6.10646 8.24671ZM5.99979 2.33337C4.64646 2.33337 3.53979 3.44004 3.53979 4.79337C3.53979 6.12671 4.57979 7.20004 5.90646 7.24671C5.94646 7.24004 6.03313 7.24004 6.1198 7.24671C7.42646 7.18671 8.45313 6.11337 8.45979 4.79337C8.45979 3.44004 7.35313 2.33337 5.99979 2.33337Z" fill="#F9F7EF"/>
<path d="M11.0263 8.33329C11.0063 8.33329 10.9863 8.33329 10.9663 8.32663C10.693 8.35329 10.413 8.15996 10.3863 7.88663C10.3597 7.61329 10.5263 7.36663 10.7997 7.33329C10.8797 7.32663 10.9663 7.32663 11.0397 7.32663C12.013 7.27329 12.773 6.47329 12.773 5.49329C12.773 4.47996 11.953 3.65996 10.9397 3.65996C10.6663 3.66663 10.4397 3.43996 10.4397 3.16663C10.4397 2.89329 10.6663 2.66663 10.9397 2.66663C12.4997 2.66663 13.773 3.93996 13.773 5.49996C13.773 7.03329 12.573 8.27329 11.0463 8.33329C11.0397 8.33329 11.033 8.33329 11.0263 8.33329Z" fill="#F9F7EF"/>
<path d="M6.11307 15.5333C4.80641 15.5333 3.49307 15.2 2.49974 14.5333C1.57307 13.92 1.06641 13.08 1.06641 12.1666C1.06641 11.2533 1.57307 10.4066 2.49974 9.78663C4.49974 8.45996 7.73974 8.45996 9.72641 9.78663C10.6464 10.4 11.1597 11.24 11.1597 12.1533C11.1597 13.0666 10.6531 13.9133 9.72641 14.5333C8.72641 15.2 7.41974 15.5333 6.11307 15.5333ZM3.05307 10.6266C2.41307 11.0533 2.06641 11.6 2.06641 12.1733C2.06641 12.74 2.41974 13.2866 3.05307 13.7066C4.71307 14.82 7.51307 14.82 9.17307 13.7066C9.81307 13.28 10.1597 12.7333 10.1597 12.16C10.1597 11.5933 9.80641 11.0466 9.17307 10.6266C7.51307 9.51996 4.71307 9.51996 3.05307 10.6266Z" fill="#F9F7EF"/>
<path d="M12.2263 14.3333C11.993 14.3333 11.7863 14.1733 11.7396 13.9333C11.6863 13.66 11.8596 13.4 12.1263 13.34C12.5463 13.2533 12.933 13.0867 13.233 12.8533C13.613 12.5667 13.8196 12.2067 13.8196 11.8267C13.8196 11.4467 13.613 11.0867 13.2396 10.8067C12.9463 10.58 12.5796 10.42 12.1463 10.32C11.8796 10.26 11.7063 9.99335 11.7663 9.72001C11.8263 9.45335 12.093 9.28001 12.3663 9.34001C12.9396 9.46668 13.4396 9.69335 13.8463 10.0067C14.4663 10.4733 14.8196 11.1333 14.8196 11.8267C14.8196 12.52 14.4596 13.18 13.8396 13.6533C13.4263 13.9733 12.9063 14.2067 12.333 14.32C12.293 14.3333 12.2596 14.3333 12.2263 14.3333Z" fill="#F9F7EF"/>
</svg>
